# xmcd
#
# Track frame offsets: 
#        150
#        35827
#        102353
#        138629
#        185122
#        210505
#        228512
#        261404
#        308211
#
# Disc length: 4402 seconds
#
# Revision: 0
# Processed by: cddbd v1.5.2PL0 Copyright (c) Steve Scherf et al.
# Submitted via: ExactAudioCopy v1.0b1
#
DISCID=8a113009
DTITLE=Gov't Mule - Calvin Theatre Northampton, MA [disk 2]
DYEAR=2013
DGENRE=Blues Rock
TTITLE0=When The World Gets Small
TTITLE1=Lively Up Yourself
TTITLE2=Wandering Child
TTITLE3=Forsaken Savior
TTITLE4=Drums
TTITLE5=Bad Little Doggie
TTITLE6=Left Coast Groovies
TTITLE7=Steppin Lightly
TTITLE8=Forevermore
EXTD=
EXTT0=
EXTT1=
EXTT2=
EXTT3=
EXTT4=
EXTT5=
EXTT6=
EXTT7=
EXTT8=
PLAYORDER=
